#N canvas 473 561 450 300 10;
#X obj 9 10 loadbang;
#X obj 9 33 delay 500;
#X msg 9 56 \; pd plugin-dispatch push-and-hold 1;
#X obj 265 17 r #push-and-hold-release;
#X obj 298 43 r \$1;
#X obj 265 69 spigot;
#X msg 265 92 0;
#X obj 265 115 s \$2;
#X connect 0 0 1 0;
#X connect 1 0 2 0;
#X connect 3 0 5 0;
#X connect 4 0 5 1;
#X connect 5 0 6 0;
#X connect 6 0 7 0;
