#N canvas 360 237 450 300 10;
#X obj 8 10 hsl 128 32 0 127 0 0 ooo ooo/r empty -2 -8 0 10 -262144
-262144 -1 0 0;
#X obj 6 10 cnv 1 1 32 empty xxx empty 20 12 0 14 -1 -262144 0;
#X obj 229 150 + 6;
#X obj 161 11 r ooo;
#X obj 277 8 r #push-and-hold-release;
#X obj 202 103 spigot;
#X msg 229 175 \; xxx vis_size 0 32 \; xxx size 0 32 \; xxx pos \$1
10 \;;
#X obj 161 34 t f b b f;
#X msg 219 73 0;
#X obj 277 31 t b b;
#X msg 304 56 1;
#X obj 119 106 spigot;
#X obj 77 154 -;
#X obj 202 126 t f f;
#X msg 178 66 1;
#X msg 277 54 0;
#X msg 116 237 \; xxx vis_size \$1 32 \; xxx size 1 \;;
#X obj 77 177 moses 0;
#X connect 2 0 6 0;
#X connect 3 0 7 0;
#X connect 4 0 9 0;
#X connect 5 0 13 0;
#X connect 7 0 11 0;
#X connect 7 1 14 0;
#X connect 7 2 8 0;
#X connect 7 3 5 0;
#X connect 8 0 5 1;
#X connect 9 0 15 0;
#X connect 9 1 10 0;
#X connect 10 0 5 1;
#X connect 11 0 12 0;
#X connect 12 0 17 0;
#X connect 13 0 12 1;
#X connect 13 1 2 0;
#X connect 14 0 11 1;
#X connect 15 0 11 1;
#X connect 17 1 16 0;
#X coords 0 -1 1 1 146 50 2 0 0;
