#N canvas 712 208 450 300 10;
#X obj 8 10 hsl 128 32 0 127 0 0 eee eee/r empty -2 -8 0 10 -262144
-262144 -1 0 0;
#X obj 68 77 r eee;
#X obj 0 0 cnv 1 1 1 empty ddd empty 20 12 0 14 -1 -262144 0;
#X obj 180 127 / 32;
#X obj 180 150 int;
#X obj 68 100 sel 0;
#X obj 212 62 push-and-hold eee eee/r;
#X obj 180 173 * 33;
#X obj 180 196 + 6;
#X msg 11 135 \; ddd vis_size 0 0 \; ddd size 0 0 \; ddd pos 0 0 \;
;
#X msg 180 221 \; ddd vis_size 32 32 \; ddd size 32 32 \; ddd pos \$1
10 \;;
#X connect 1 0 5 0;
#X connect 3 0 4 0;
#X connect 4 0 7 0;
#X connect 5 0 9 0;
#X connect 5 1 3 0;
#X connect 7 0 8 0;
#X connect 8 0 10 0;
#X coords 0 -1 1 1 146 50 2 0 0;
